<?xml version="1.0" encoding="utf-8"?>
<!-- Generator: Adobe Illustrator 16.0.0, SVG Export Plug-In . SVG Version: 6.00 Build 0)  -->
<!DOCTYPE svg PUBLIC "-//W3C//DTD SVG 1.1//EN" "http://www.w3.org/Graphics/SVG/1.1/DTD/svg11.dtd">
<svg version="1.1" id="Layer_1" xmlns="http://www.w3.org/2000/svg" xmlns:xlink="http://www.w3.org/1999/xlink" x="0px" y="0px"
	 width="1617.722px" height="750.373px" viewBox="62.623 39.661 1617.722 750.373"
	 enable-background="new 62.623 39.661 1617.722 750.373" xml:space="preserve">
<g id="Group_1695" transform="translate(-2483.377 5790.661)">
	
		<linearGradient id="Path_2285_1_" gradientUnits="userSpaceOnUse" x1="3068.5251" y1="-4941.0151" x2="3068.5251" y2="-4942.064" gradientTransform="matrix(1620 0 0 -748.7 -4967654 -3705089.25)">
		<stop  offset="0" style="stop-color:#4B46FF"/>
		<stop  offset="1" style="stop-color:#2F99F5"/>
	</linearGradient>
	<path id="Path_2285" fill="url(#Path_2285_1_)" d="M2546-5751h1620v552.417l-311.028,196.283H2546V-5751z"/>
	
		<linearGradient id="Path_2291_1_" gradientUnits="userSpaceOnUse" x1="3065.1277" y1="-4943.063" x2="3065.1477" y2="-4942.481" gradientTransform="matrix(54.931 75.5768 309.6731 -225.0776 1364946.5 -1349294.25)">
		<stop  offset="0" style="stop-color:#5BAAFF"/>
		<stop  offset="1" style="stop-color:#328EF6;stop-opacity:0"/>
	</linearGradient>
	<path id="Path_2291" opacity="0.55" fill="url(#Path_2291_1_)" enable-background="new    " d="M2822.333-5269.342l0.017,85.451
		l-277.971,183.264l-0.017-96.717L2822.333-5269.342z"/>
	<path id="Path_2293" opacity="0.29" fill="#96C5F6" enable-background="new    " d="M2653.36-5187.211l0.009,40.285
		l-112.813,76.438l-51.065,0.01L2653.36-5187.211z"/>
	<path id="Path_2296" opacity="0.23" fill="#88BDF6" enable-background="new    " d="M4169.596-5171.917l-3.021,43.262
		l-161.416,104.32l0.114-42.432L4169.596-5171.917z"/>
	
		<linearGradient id="Path_2292_1_" gradientUnits="userSpaceOnUse" x1="3064.8718" y1="-4941.7759" x2="3064.7488" y2="-4942.5337" gradientTransform="matrix(50.6503 69.6873 702.2314 -510.3981 3319067.5 -2741222.5)">
		<stop  offset="0" style="stop-color:#3C71F9"/>
		<stop  offset="1" style="stop-color:#A4AAFF"/>
	</linearGradient>
	<path id="Path_2292" opacity="0.54" fill="url(#Path_2292_1_)" enable-background="new    " d="M4172.133-5486.24l0.012,66.756
		l-620.691,417.622l-100.45,0.02L4172.133-5486.24z"/>
	<path id="Path_2286" opacity="0.06" fill="#D4D8FF" enable-background="new    " d="M2689.22-5760.547l60.636-0.011
		l-146.746,106.263l-2.264-43.895L2689.22-5760.547z"/>
	
		<linearGradient id="Path_2289_1_" gradientUnits="userSpaceOnUse" x1="3071.8909" y1="-4939.4058" x2="3071.8147" y2="-4939.9053" gradientTransform="matrix(-50.866 -88.1025 -241.7189 139.5565 -1035131.75 954482)">
		<stop  offset="0" style="stop-color:#7A9CF6"/>
		<stop  offset="1" style="stop-color:#4458FC;stop-opacity:0.169"/>
	</linearGradient>
	<path id="Path_2289" fill="url(#Path_2289_1_)" d="M2544.511-5413.49v-103.448l192.585-121.21l-6.48,121.211L2544.511-5413.49z"/>
	
		<linearGradient id="Path_2288_1_" gradientUnits="userSpaceOnUse" x1="3071.8909" y1="-4939.4058" x2="3071.8149" y2="-4939.9048" gradientTransform="matrix(-50.866 -88.1025 -241.7189 139.5565 -1035143.75 954432)">
		<stop  offset="0" style="stop-color:#7A9CF6"/>
		<stop  offset="1" style="stop-color:#4458FC;stop-opacity:0.169"/>
	</linearGradient>
	<path id="Path_2288" opacity="0.35" fill="url(#Path_2288_1_)" enable-background="new    " d="M2532.511-5463.49v-103.448
		l192.585-121.21l-6.48,121.211L2532.511-5463.49z"/>
	<path id="Path_2290" opacity="0.25" fill="#6965FF" enable-background="new    " d="M2613.337-5300.094l2.852,40.654l-40.653,2.852
		L2613.337-5300.094z"/>
	<g id="Group_1694" transform="translate(6374.449 -5936.891)" opacity="0.1">
		
			<line id="Line_77" fill="none" stroke="#D5D9FF" stroke-width="3" stroke-miterlimit="10" x1="-2314.636" y1="166.029" x2="-2355.209" y2="206.602"/>
		
			<line id="Line_78" fill="none" stroke="#D5D9FF" stroke-width="3" stroke-miterlimit="10" x1="-2293.975" y1="158.495" x2="-2362.742" y2="227.262"/>
		
			<line id="Line_79" fill="none" stroke="#D5D9FF" stroke-width="3" stroke-miterlimit="10" x1="-2278.616" y1="156.258" x2="-2364.98" y2="242.622"/>
		
			<line id="Line_80" fill="none" stroke="#D5D9FF" stroke-width="3" stroke-miterlimit="10" x1="-2265.605" y1="156.368" x2="-2364.869" y2="255.632"/>
		
			<line id="Line_81" fill="none" stroke="#D5D9FF" stroke-width="3" stroke-miterlimit="10" x1="-2254.117" y1="158.008" x2="-2363.23" y2="267.121"/>
		
			<line id="Line_82" fill="none" stroke="#D5D9FF" stroke-width="3" stroke-miterlimit="10" x1="-2243.78" y1="160.792" x2="-2360.446" y2="277.458"/>
		
			<line id="Line_83" fill="none" stroke="#D5D9FF" stroke-width="3" stroke-miterlimit="10" x1="-2234.375" y1="164.513" x2="-2356.725" y2="286.864"/>
		
			<line id="Line_84" fill="none" stroke="#D5D9FF" stroke-width="3" stroke-miterlimit="10" x1="-2225.78" y1="169.041" x2="-2352.197" y2="295.458"/>
		
			<line id="Line_85" fill="none" stroke="#D5D9FF" stroke-width="3" stroke-miterlimit="10" x1="-2217.915" y1="174.297" x2="-2346.941" y2="303.323"/>
		
			<line id="Line_86" fill="none" stroke="#D5D9FF" stroke-width="3" stroke-miterlimit="10" x1="-2210.727" y1="180.23" x2="-2341.009" y2="310.511"/>
		
			<line id="Line_87" fill="none" stroke="#D5D9FF" stroke-width="3" stroke-miterlimit="10" x1="-2204.202" y1="186.832" x2="-2334.405" y2="317.035"/>
		
			<line id="Line_88" fill="none" stroke="#D5D9FF" stroke-width="3" stroke-miterlimit="10" x1="-2198.335" y1="194.086" x2="-2327.152" y2="322.904"/>
		
			<line id="Line_89" fill="none" stroke="#D5D9FF" stroke-width="3" stroke-miterlimit="10" x1="-2193.156" y1="202.029" x2="-2319.209" y2="328.082"/>
		
			<line id="Line_90" fill="none" stroke="#D5D9FF" stroke-width="3" stroke-miterlimit="10" x1="-2188.707" y1="210.707" x2="-2310.531" y2="332.531"/>
		
			<line id="Line_91" fill="none" stroke="#D5D9FF" stroke-width="3" stroke-miterlimit="10" x1="-2185.084" y1="220.205" x2="-2301.033" y2="336.155"/>
		
			<line id="Line_92" fill="none" stroke="#D5D9FF" stroke-width="3" stroke-miterlimit="10" x1="-2182.409" y1="230.659" x2="-2290.58" y2="338.829"/>
		
			<line id="Line_93" fill="none" stroke="#D5D9FF" stroke-width="3" stroke-miterlimit="10" x1="-2180.921" y1="242.29" x2="-2278.948" y2="340.318"/>
		
			<line id="Line_94" fill="none" stroke="#D5D9FF" stroke-width="3" stroke-miterlimit="10" x1="-2180.998" y1="255.496" x2="-2265.742" y2="340.24"/>
		
			<line id="Line_95" fill="none" stroke="#D5D9FF" stroke-width="3" stroke-miterlimit="10" x1="-2183.594" y1="271.213" x2="-2250.025" y2="337.645"/>
		
			<line id="Line_96" fill="none" stroke="#D5D9FF" stroke-width="3" stroke-miterlimit="10" x1="-2192.284" y1="293.025" x2="-2228.213" y2="328.954"/>
	</g>
	<line id="Line_110" fill="none" stroke="#7975FC" x1="3683.5" y1="-5691.5" x2="3683.5" y2="-5664.5"/>
	<path id="Path_2294" opacity="0.3" fill="#5048E8" enable-background="new    " d="M4165.169-5293.077l-1.056,62.023
		l-175.708,114.697l-2.092-60.941L4165.169-5293.077z"/>
	
		<linearGradient id="Path_2297_1_" gradientUnits="userSpaceOnUse" x1="3062.9988" y1="-4942.8833" x2="3062.9988" y2="-4943.3833" gradientTransform="matrix(34.9613 48.1015 204.0799 -148.33 905887.875 -886114.5625)">
		<stop  offset="0" style="stop-color:#817EFC"/>
		<stop  offset="1" style="stop-color:#4696FF"/>
	</linearGradient>
	<path id="Path_2297" opacity="0.34" fill="url(#Path_2297_1_)" enable-background="new    " d="M4218.174-5619.131l0.012,63.571
		l-178.023,120.624l-3.215-62.408L4218.174-5619.131z"/>
	
		<linearGradient id="Path_2295_1_" gradientUnits="userSpaceOnUse" x1="3062.3625" y1="-4943.0698" x2="3062.4856" y2="-4943.8804" gradientTransform="matrix(31.9202 43.9174 186.3248 -135.4252 827405.0625 -809258.375)">
		<stop  offset="0" style="stop-color:#FFFFFF"/>
		<stop  offset="1" style="stop-color:#3973F3"/>
	</linearGradient>
	<path id="Path_2295" opacity="0.31" fill="url(#Path_2295_1_)" enable-background="new    " d="M4131.92-5365.25l0.01,58.044
		l-162.533,110.127l-2.938-56.977L4131.92-5365.25z"/>
</g>
</svg>
