<?xml version="1.0" encoding="utf-8"?>
<!-- Generator: Adobe Illustrator 16.0.0, SVG Export Plug-In . SVG Version: 6.00 Build 0)  -->
<!DOCTYPE svg PUBLIC "-//W3C//DTD SVG 1.1//EN" "http://www.w3.org/Graphics/SVG/1.1/DTD/svg11.dtd">
<svg version="1.1" id="Layer_1" xmlns="http://www.w3.org/2000/svg" xmlns:xlink="http://www.w3.org/1999/xlink" x="0px" y="0px"
	 width="538.005px" height="339.742px" viewBox="22.847 268.703 538.005 339.742"
	 enable-background="new 22.847 268.703 538.005 339.742" xml:space="preserve">
<g>
	<g>
		<g>
			<g>
				<g>
					<path id="path4464_2_" fill="#70E8F1" d="M356.81,311.028c-0.105-0.21-0.211-0.421-0.315-0.632
						c-0.526-0.737-1.369-1.263-2.316-1.263c-1.579,0-2.737,1.263-2.737,2.737c0,1.158,0.736,2.105,1.685,2.527
						c0.315,0.105,0.736,0.21,1.053,0.21c0.421,0,0.842-0.105,1.158-0.316c0.421-0.21,0.842-0.526,1.053-0.948
						c0.105-0.21,0.315-0.421,0.315-0.737c0.105-0.21,0.105-0.526,0.105-0.842C357.021,311.659,356.915,311.344,356.81,311.028z"/>
				</g>
				<g>
					
						<image overflow="visible" enable-background="new    " width="1963" height="729" xlink:href="482D4A23.png"  transform="matrix(0.2518 0 0 0.2518 66.4143 496.6548)">
					</image>
				</g>
				<path fill="#9EA7DC" d="M139.081,535.074l0.315-228.995c0-6.949,5.686-12.529,12.529-12.529l337.227,0.421
					c6.949,0,12.529,5.686,12.529,12.529l-0.316,228.995L139.081,535.074z"/>
				
					<linearGradient id="SVGID_1_" gradientUnits="userSpaceOnUse" x1="304.3254" y1="559.5073" x2="304.3254" y2="785.7075" gradientTransform="matrix(1.0528 0 0 -1.0528 -0.0269 1122.6768)">
					<stop  offset="0" style="stop-color:#C5C8FF"/>
					<stop  offset="0.6048" style="stop-color:#D4DEFF"/>
					<stop  offset="1" style="stop-color:#DAE6FF"/>
				</linearGradient>
				<path fill="url(#SVGID_1_)" d="M499.471,533.599l0.315-227.099c0-5.896-4.737-10.634-10.634-10.634l-337.227-0.421
					c-5.896,0-10.634,4.738-10.634,10.634l-0.316,227.1L499.471,533.599z"/>
				<g>
					
						<linearGradient id="SVGID_2_" gradientUnits="userSpaceOnUse" x1="304.3254" y1="574.1069" x2="304.3254" y2="771.1069" gradientTransform="matrix(1.0528 0 0 -1.0528 -0.0269 1122.6768)">
						<stop  offset="0" style="stop-color:#AFB7F9"/>
						<stop  offset="1" style="stop-color:#C0C6FB"/>
					</linearGradient>
					<polygon fill="url(#SVGID_2_)" points="483.257,518.228 157.295,517.806 157.506,310.817 483.468,311.133 					"/>
				</g>
				
					<linearGradient id="SVGID_3_" gradientUnits="userSpaceOnUse" x1="64.7664" y1="542.4604" x2="521.8665" y2="542.4604" gradientTransform="matrix(1.0528 0.0012 0.0012 -1.0528 10.7443 1106.9998)">
					<stop  offset="0" style="stop-color:#C5C8FF"/>
					<stop  offset="0.1" style="stop-color:#E3F6FF"/>
					<stop  offset="0.5" style="stop-color:#F4F4F4"/>
					<stop  offset="0.8531" style="stop-color:#E3F6FF"/>
					<stop  offset="1" style="stop-color:#C5C8FF"/>
				</linearGradient>
				<polygon fill="url(#SVGID_3_)" points="560.852,541.285 79.595,540.759 79.7,531.179 560.852,531.705 				"/>
				
					<linearGradient id="SVGID_4_" gradientUnits="userSpaceOnUse" x1="64.7664" y1="533.3452" x2="521.7659" y2="533.3452" gradientTransform="matrix(1.0528 0.0012 0.0012 -1.0528 10.7443 1106.9998)">
					<stop  offset="0" style="stop-color:#C5C8FF"/>
					<stop  offset="1" style="stop-color:#C5C8FF"/>
				</linearGradient>
				<path fill="url(#SVGID_4_)" d="M79.595,540.759L79.595,540.759c7.687,6.211,17.267,9.58,27.059,9.58l426.93,0.527
					c8.949,0,17.793-2.844,25.058-8.002l2.105-1.475L79.595,540.759z"/>
			</g>
		</g>
		<circle fill="#C5C8FF" cx="320.381" cy="303.658" r="3.369"/>
	</g>
	<rect x="157.506" y="310.817" fill="#EEF5F8" width="325.856" height="15.687"/>
	<g opacity="0.65">
		
			<image overflow="visible" enable-background="new    " width="558" height="446" xlink:href="482D4A21.png"  transform="matrix(0.252 0 0 0.252 141.967 313.563)">
		</image>
	</g>
	<g opacity="0.65">
		
			<image overflow="visible" enable-background="new    " width="558" height="446" xlink:href="482D4A27.png"  transform="matrix(0.2517 0 0 0.2517 217.9749 313.6255)">
		</image>
	</g>
	<g opacity="0.65">
		
			<image overflow="visible" enable-background="new    " width="563" height="446" xlink:href="482D4A20.png"  transform="matrix(0.2506 0 0 0.2506 291.5647 313.8696)">
		</image>
	</g>
	<g opacity="0.65">
		
			<image overflow="visible" enable-background="new    " width="558" height="446" xlink:href="482D4A2E.png"  transform="matrix(0.2517 0 0 0.2517 366.3 313.6255)">
		</image>
	</g>
	
		<linearGradient id="SVGID_5_" gradientUnits="userSpaceOnUse" x1="198.3757" y1="702.0073" x2="198.3757" y2="736.4077" gradientTransform="matrix(1.0528 0 0 -1.0528 -0.0269 1122.6768)">
		<stop  offset="0" style="stop-color:#E7F5FB"/>
		<stop  offset="1" style="stop-color:#F4F4F4"/>
	</linearGradient>
	<rect x="176.668" y="347.351" fill="url(#SVGID_5_)" width="64.329" height="36.218"/>
	<g>
		
			<image overflow="visible" enable-background="new    " width="379" height="375" xlink:href="482D4A2F.png"  transform="matrix(0.251 0 0 0.251 142.4631 307.5278)">
		</image>
	</g>
	
		<linearGradient id="SVGID_6_" gradientUnits="userSpaceOnUse" x1="269.075" y1="702.0073" x2="269.075" y2="736.4077" gradientTransform="matrix(1.0528 0 0 -1.0528 -0.0269 1122.6768)">
		<stop  offset="0" style="stop-color:#E7F5FB"/>
		<stop  offset="1" style="stop-color:#F4F4F4"/>
	</linearGradient>
	<rect x="251.104" y="347.351" fill="url(#SVGID_6_)" width="64.329" height="36.218"/>
	
		<linearGradient id="SVGID_7_" gradientUnits="userSpaceOnUse" x1="339.7756" y1="702.0073" x2="339.7756" y2="736.4077" gradientTransform="matrix(1.0528 0 0 -1.0528 -0.0269 1122.6768)">
		<stop  offset="0" style="stop-color:#E7F5FB"/>
		<stop  offset="1" style="stop-color:#F4F4F4"/>
	</linearGradient>
	<rect x="325.54" y="347.351" fill="url(#SVGID_7_)" width="64.329" height="36.218"/>
	
		<linearGradient id="SVGID_8_" gradientUnits="userSpaceOnUse" x1="410.4758" y1="702.0073" x2="410.4758" y2="736.4077" gradientTransform="matrix(1.0528 0 0 -1.0528 -0.0269 1122.6768)">
		<stop  offset="0" style="stop-color:#E7F5FB"/>
		<stop  offset="1" style="stop-color:#F4F4F4"/>
	</linearGradient>
	<rect x="399.977" y="347.351" fill="url(#SVGID_8_)" width="64.329" height="36.218"/>
	
		<linearGradient id="SVGID_9_" gradientUnits="userSpaceOnUse" x1="304.426" y1="583.6069" x2="304.426" y2="693.6069" gradientTransform="matrix(1.0528 0 0 -1.0528 -0.0269 1122.6768)">
		<stop  offset="0" style="stop-color:#E7F5FB"/>
		<stop  offset="1" style="stop-color:#F4F4F4"/>
	</linearGradient>
	<rect x="176.668" y="392.413" fill="url(#SVGID_9_)" width="287.638" height="115.813"/>
	<rect x="178.457" y="342.297" fill="#0EC155" width="18.53" height="18.53"/>
	<g>
		
			<image overflow="visible" enable-background="new    " width="379" height="375" xlink:href="482D4A22.png"  transform="matrix(0.251 0 0 0.251 219.0266 307.5278)">
		</image>
	</g>
	<g>
		
			<image overflow="visible" enable-background="new    " width="379" height="375" xlink:href="482D4A25.png"  transform="matrix(0.251 0 0 0.251 294.0735 307.5278)">
		</image>
	</g>
	<rect x="253.842" y="342.297" fill="#29BBAB" width="18.529" height="18.53"/>
	<rect x="328.278" y="342.297" fill="#38B1E0" width="18.53" height="18.53"/>
	
		<linearGradient id="SVGID_10_" gradientUnits="userSpaceOnUse" x1="176.6257" y1="676.0581" x2="302.425" y2="676.0581" gradientTransform="matrix(1.0528 0 0 -1.0528 -0.0269 1122.6768)">
		<stop  offset="0" style="stop-color:#5694FF"/>
		<stop  offset="1" style="stop-color:#4C72E3"/>
	</linearGradient>
	<rect x="185.933" y="396.729" fill="url(#SVGID_10_)" width="132.448" height="28.321"/>
	<g opacity="0.5">
		<rect x="184.143" y="368.513" fill="#C3C7CB" width="22.426" height="2.316"/>
		<rect x="184.143" y="374.725" fill="#C3C7CB" width="34.639" height="2.316"/>
		<rect x="258.264" y="368.513" fill="#C3C7CB" width="22.426" height="2.316"/>
		<rect x="258.264" y="374.725" fill="#C3C7CB" width="34.639" height="2.316"/>
		<rect x="333.437" y="368.513" fill="#C3C7CB" width="22.426" height="2.316"/>
		<rect x="333.437" y="374.725" fill="#C3C7CB" width="34.639" height="2.316"/>
		<rect x="405.451" y="368.513" fill="#C3C7CB" width="22.426" height="2.316"/>
		<rect x="405.451" y="374.725" fill="#C3C7CB" width="34.639" height="2.316"/>
	</g>
	<rect x="164.876" y="317.45" fill="#C3C7CB" width="14.424" height="2.316"/>
	
		<linearGradient id="SVGID_11_" gradientUnits="userSpaceOnUse" x1="939.7083" y1="-780.3701" x2="939.7083" y2="-775.9507" gradientTransform="matrix(0.7445 0.7445 0.7445 -0.7445 67.4696 -927.349)">
		<stop  offset="0" style="stop-color:#E7F5FB"/>
		<stop  offset="1" style="stop-color:#F4F4F4"/>
	</linearGradient>
	<polygon opacity="0.5" fill="url(#SVGID_11_)" enable-background="new    " points="187.723,354.826 184.459,351.563 
		187.723,348.298 190.987,351.563 	"/>
	
		<linearGradient id="SVGID_12_" gradientUnits="userSpaceOnUse" x1="990.4084" y1="-729.7383" x2="990.4084" y2="-725.3177" gradientTransform="matrix(0.7445 0.7445 0.7445 -0.7445 67.4696 -927.349)">
		<stop  offset="0" style="stop-color:#E7F5FB"/>
		<stop  offset="1" style="stop-color:#F4F4F4"/>
	</linearGradient>
	<path opacity="0.5" fill="url(#SVGID_12_)" enable-background="new    " d="M261.738,353.563l-0.526-0.527
		c-0.736-0.737-0.736-2,0-2.737l0.526-0.526c0.737-0.737,2.001-0.737,2.738,0l0.526,0.526c0.736,0.737,0.736,2,0,2.737l-0.526,0.527
		C263.739,354.3,262.475,354.3,261.738,353.563z"/>
	
		<linearGradient id="SVGID_13_" gradientUnits="userSpaceOnUse" x1="2655.1633" y1="-1212.4556" x2="2655.1633" y2="-1208.0359" gradientTransform="matrix(0 1.0528 1.0528 0 1611.738 -2443.9211)">
		<stop  offset="0" style="stop-color:#E7F5FB"/>
		<stop  offset="1" style="stop-color:#F4F4F4"/>
	</linearGradient>
	<polygon opacity="0.5" fill="url(#SVGID_13_)" enable-background="new    " points="335.227,353.879 335.227,349.246 
		339.859,349.246 339.859,353.879 	"/>
	<rect x="186.88" y="431.369" fill="#08DEF8" width="20.005" height="6"/>
	<rect x="296.693" y="431.369" fill="#08DEF8" width="12.634" height="6"/>
	<rect x="296.693" y="445.056" fill="#08DEF8" width="12.634" height="6"/>
	<g>
		<rect x="302.588" y="476.009" fill="#08DEF8" width="6.738" height="4.316"/>
		<rect x="272.056" y="476.009" fill="#0EC155" width="26.742" height="4.316"/>
	</g>
	<g>
		
			<linearGradient id="SVGID_14_" gradientUnits="userSpaceOnUse" x1="321.925" y1="647.4575" x2="432.0256" y2="647.4575" gradientTransform="matrix(1.0528 0 0 -1.0528 -0.0269 1122.6768)">
			<stop  offset="0.0335" style="stop-color:#4D76E6"/>
			<stop  offset="1" style="stop-color:#4C72E3"/>
		</linearGradient>
		<rect x="338.911" y="396.729" fill="url(#SVGID_14_)" width="115.919" height="88.545"/>
		<g>
			<g>
				<rect x="342.807" y="402.625" opacity="0.5" fill="#FFFFFF" enable-background="new    " width="1.053" height="0.948"/>
			</g>
			<g>
				<rect x="342.807" y="408.837" opacity="0.5" fill="#FFFFFF" enable-background="new    " width="1.053" height="0.947"/>
			</g>
			<g>
				<rect x="342.807" y="415.049" opacity="0.5" fill="#FFFFFF" enable-background="new    " width="1.053" height="0.947"/>
			</g>
			<g>
				<rect x="342.807" y="421.366" opacity="0.5" fill="#FFFFFF" enable-background="new    " width="1.053" height="0.948"/>
			</g>
			<g>
				<rect x="342.807" y="427.578" opacity="0.5" fill="#FFFFFF" enable-background="new    " width="1.053" height="0.947"/>
			</g>
			<g>
				<rect x="342.807" y="433.791" opacity="0.5" fill="#FFFFFF" enable-background="new    " width="1.053" height="0.947"/>
			</g>
			<g>
				<rect x="342.807" y="440.107" opacity="0.5" fill="#FFFFFF" enable-background="new    " width="1.053" height="0.947"/>
			</g>
			<g>
				<rect x="342.807" y="446.318" opacity="0.5" fill="#FFFFFF" enable-background="new    " width="1.053" height="0.949"/>
			</g>
			<g>
				<rect x="342.807" y="452.531" opacity="0.5" fill="#FFFFFF" enable-background="new    " width="1.053" height="0.947"/>
			</g>
			<g>
				<rect x="342.807" y="458.847" opacity="0.5" fill="#FFFFFF" enable-background="new    " width="1.053" height="0.947"/>
			</g>
			<g>
				<rect x="342.807" y="465.06" opacity="0.5" fill="#FFFFFF" enable-background="new    " width="1.053" height="0.947"/>
			</g>
			<g>
				<rect x="342.807" y="471.271" opacity="0.5" fill="#FFFFFF" enable-background="new    " width="1.053" height="0.947"/>
			</g>
			<g>
				<rect x="342.807" y="477.587" opacity="0.5" fill="#FFFFFF" enable-background="new    " width="9.476" height="0.949"/>
			</g>
			<g>
				<rect x="359.337" y="477.587" opacity="0.5" fill="#FFFFFF" enable-background="new    " width="9.476" height="0.949"/>
			</g>
			<g>
				<rect x="375.866" y="477.587" opacity="0.5" fill="#FFFFFF" enable-background="new    " width="9.476" height="0.949"/>
			</g>
			<g>
				<rect x="392.396" y="477.587" opacity="0.5" fill="#FFFFFF" enable-background="new    " width="9.477" height="0.949"/>
			</g>
			<g>
				<rect x="408.926" y="477.587" opacity="0.5" fill="#FFFFFF" enable-background="new    " width="9.476" height="0.949"/>
			</g>
			<g>
				<rect x="425.455" y="477.587" opacity="0.5" fill="#FFFFFF" enable-background="new    " width="9.476" height="0.949"/>
			</g>
			<g>
				<rect x="441.986" y="477.587" opacity="0.5" fill="#FFFFFF" enable-background="new    " width="9.476" height="0.949"/>
			</g>
		</g>
		<g>
			<g>
				
					<line opacity="0.2" fill="none" stroke="#FFFFFF" stroke-width="0.5" stroke-miterlimit="10" enable-background="new    " x1="342.807" y1="406.311" x2="450.935" y2="406.311"/>
				
					<line opacity="0.2" fill="none" stroke="#FFFFFF" stroke-width="0.5" stroke-miterlimit="10" enable-background="new    " x1="342.807" y1="412.627" x2="450.935" y2="412.627"/>
			</g>
			<g>
				
					<line opacity="0.2" fill="none" stroke="#FFFFFF" stroke-width="0.5" stroke-miterlimit="10" enable-background="new    " x1="342.807" y1="418.629" x2="450.935" y2="418.629"/>
				
					<line opacity="0.2" fill="none" stroke="#FFFFFF" stroke-width="0.5" stroke-miterlimit="10" enable-background="new    " x1="342.807" y1="424.947" x2="450.935" y2="424.947"/>
			</g>
			<g>
				
					<line opacity="0.2" fill="none" stroke="#FFFFFF" stroke-width="0.5" stroke-miterlimit="10" enable-background="new    " x1="342.807" y1="431.263" x2="450.935" y2="431.263"/>
				
					<line opacity="0.2" fill="none" stroke="#FFFFFF" stroke-width="0.5" stroke-miterlimit="10" enable-background="new    " x1="342.807" y1="437.58" x2="450.935" y2="437.58"/>
			</g>
			<g>
				
					<line opacity="0.2" fill="none" stroke="#FFFFFF" stroke-width="0.5" stroke-miterlimit="10" enable-background="new    " x1="342.807" y1="443.582" x2="450.935" y2="443.582"/>
				
					<line opacity="0.2" fill="none" stroke="#FFFFFF" stroke-width="0.5" stroke-miterlimit="10" enable-background="new    " x1="342.807" y1="449.898" x2="450.935" y2="449.898"/>
			</g>
			<g>
				
					<line opacity="0.2" fill="none" stroke="#FFFFFF" stroke-width="0.5" stroke-miterlimit="10" enable-background="new    " x1="342.807" y1="456.005" x2="450.935" y2="456.005"/>
				
					<line opacity="0.2" fill="none" stroke="#FFFFFF" stroke-width="0.5" stroke-miterlimit="10" enable-background="new    " x1="342.807" y1="462.322" x2="450.935" y2="462.322"/>
			</g>
			<g>
				
					<line opacity="0.2" fill="none" stroke="#FFFFFF" stroke-width="0.5" stroke-miterlimit="10" enable-background="new    " x1="342.807" y1="468.324" x2="450.935" y2="468.324"/>
			</g>
		</g>
		<g>
			<g>
				
					<line opacity="0.2" fill="none" stroke="#FFFFFF" stroke-width="0.5" stroke-miterlimit="10" enable-background="new    " x1="355.02" y1="478.537" x2="355.02" y2="401.573"/>
				
					<line opacity="0.2" fill="none" stroke="#FFFFFF" stroke-width="0.5" stroke-miterlimit="10" enable-background="new    " x1="372.918" y1="478.537" x2="372.918" y2="401.573"/>
			</g>
			<g>
				
					<line opacity="0.2" fill="none" stroke="#FFFFFF" stroke-width="0.5" stroke-miterlimit="10" enable-background="new    " x1="387.869" y1="478.537" x2="387.869" y2="401.573"/>
				
					<line opacity="0.2" fill="none" stroke="#FFFFFF" stroke-width="0.5" stroke-miterlimit="10" enable-background="new    " x1="405.768" y1="478.537" x2="405.768" y2="401.573"/>
			</g>
			<g>
				
					<line opacity="0.2" fill="none" stroke="#FFFFFF" stroke-width="0.5" stroke-miterlimit="10" enable-background="new    " x1="421.244" y1="478.537" x2="421.244" y2="401.573"/>
				
					<line opacity="0.2" fill="none" stroke="#FFFFFF" stroke-width="0.5" stroke-miterlimit="10" enable-background="new    " x1="439.143" y1="478.537" x2="439.143" y2="401.573"/>
			</g>
		</g>
		<path opacity="0.19" fill="#FFFFFF" enable-background="new    " d="M343.86,477.587c0,0,12.318-16.213,20.215-14.633
			c7.896,1.578,16.108,12.318,27.69-4.107c11.687-16.424,17.056-27.584,28.11-27.584c13.371,0,24.953-8.949,28.953-24.953v71.277
			H343.86L343.86,477.587z"/>
		
			<path opacity="0.5" fill="none" stroke="#FFFFFF" stroke-width="0.75" stroke-linecap="round" stroke-linejoin="round" stroke-miterlimit="10" enable-background="new    " d="
			M343.86,477.587c0,0,12.318-16.213,20.215-14.633c7.896,1.578,16.108,12.318,27.69-4.107
			c11.687-16.424,17.056-27.584,28.11-27.584c13.371,0,24.953-8.949,28.953-24.953"/>
	</g>
	<rect x="272.056" y="433.369" fill="#C3C7CB" width="20.004" height="2"/>
	<rect x="272.056" y="447.056" fill="#C3C7CB" width="20.004" height="2"/>
	<g>
		<rect x="332.699" y="491.38" fill="#C3C7CB" width="10.002" height="2"/>
		<rect x="210.464" y="491.38" fill="#C3C7CB" width="10.002" height="2"/>
		<rect x="392.923" y="491.38" fill="#C3C7CB" width="10.002" height="2"/>
		<rect x="270.582" y="491.38" fill="#C3C7CB" width="10.002" height="2"/>
	</g>
	<rect x="452.303" y="490.328" fill="#70E8F1" width="3.58" height="3.58"/>
	
		<linearGradient id="SVGID_15_" gradientUnits="userSpaceOnUse" x1="167.8259" y1="587.8579" x2="441.0256" y2="587.8579" gradientTransform="matrix(1.0528 0 0 -1.0528 -0.0269 1122.6768)">
		<stop  offset="0" style="stop-color:#5694FF"/>
		<stop  offset="1" style="stop-color:#4C72E3"/>
	</linearGradient>
	<rect x="176.668" y="498.33" fill="url(#SVGID_15_)" width="287.638" height="10.844"/>
	<rect x="452.303" y="501.91" opacity="0.5" fill="#FFFFFF" enable-background="new    " width="3.58" height="3.578"/>
	<rect x="445.355" y="501.91" opacity="0.5" fill="#FFFFFF" enable-background="new    " width="3.579" height="3.578"/>
	<rect x="438.406" y="501.91" opacity="0.5" fill="#FFFFFF" enable-background="new    " width="3.58" height="3.578"/>
	<rect x="311.748" y="501.91" opacity="0.5" fill="#FFFFFF" enable-background="new    " width="16.635" height="3.578"/>
	<rect x="183.406" y="501.91" opacity="0.5" fill="#FFFFFF" enable-background="new    " width="16.635" height="3.578"/>
	<g>
		<g enable-background="new    ">
			<path fill="#FFFFFF" d="M227.947,404.882c-0.053-0.987-0.115-2.173-0.105-3.055h-0.032c-0.241,0.829-0.535,1.711-0.892,2.688
				l-1.25,3.433h-0.692l-1.145-3.37c-0.336-0.997-0.619-1.91-0.819-2.75h-0.021c-0.021,0.882-0.073,2.068-0.137,3.128l-0.188,3.034
				h-0.872l0.494-7.076h1.165l1.207,3.422c0.294,0.871,0.536,1.648,0.714,2.383h0.032c0.178-0.714,0.43-1.49,0.746-2.383l1.26-3.422
				h1.165l0.441,7.076h-0.892L227.947,404.882z"/>
			<path fill="#FFFFFF" d="M233.2,407.99l-0.074-0.641h-0.032c-0.283,0.399-0.829,0.756-1.554,0.756
				c-1.028,0-1.554-0.724-1.554-1.459c0-1.229,1.092-1.9,3.055-1.89v-0.105c0-0.42-0.116-1.176-1.155-1.176
				c-0.473,0-0.966,0.147-1.323,0.378l-0.21-0.609c0.42-0.273,1.029-0.451,1.669-0.451c1.554,0,1.932,1.06,1.932,2.078v1.9
				c0,0.441,0.021,0.871,0.084,1.218H233.2z M233.064,405.397c-1.008-0.021-2.152,0.157-2.152,1.144
				c0,0.598,0.399,0.882,0.872,0.882c0.662,0,1.082-0.42,1.228-0.85c0.032-0.095,0.053-0.2,0.053-0.294V405.397z"/>
			<path fill="#FFFFFF" d="M235.443,404.494c0-0.598-0.01-1.112-0.042-1.585h0.809l0.031,0.997h0.042
				c0.231-0.682,0.788-1.112,1.407-1.112c0.104,0,0.178,0.01,0.262,0.031v0.871c-0.094-0.021-0.189-0.031-0.315-0.031
				c-0.651,0-1.113,0.493-1.239,1.187c-0.021,0.126-0.042,0.272-0.042,0.43v2.708h-0.914V404.494z"/>
			<path fill="#FFFFFF" d="M239.787,405.239h0.021c0.126-0.178,0.305-0.399,0.451-0.578l1.491-1.753h1.112l-1.963,2.089l2.236,2.992
				h-1.124l-1.753-2.436l-0.472,0.525v1.911h-0.914v-7.454h0.914V405.239z"/>
			<path fill="#FFFFFF" d="M244.308,405.617c0.021,1.25,0.819,1.764,1.743,1.764c0.662,0,1.06-0.116,1.407-0.262l0.157,0.661
				c-0.325,0.147-0.882,0.315-1.69,0.315c-1.564,0-2.499-1.029-2.499-2.562s0.903-2.74,2.383-2.74c1.659,0,2.1,1.459,2.1,2.394
				c0,0.188-0.021,0.336-0.031,0.43H244.308z M247.016,404.956c0.01-0.588-0.242-1.501-1.281-1.501
				c-0.935,0-1.344,0.861-1.417,1.501H247.016z"/>
			<path fill="#FFFFFF" d="M250.162,401.45v1.459h1.322v0.703h-1.322v2.74c0,0.63,0.178,0.987,0.692,0.987
				c0.242,0,0.42-0.032,0.536-0.063l0.042,0.693c-0.178,0.074-0.462,0.126-0.819,0.126c-0.431,0-0.777-0.136-0.997-0.388
				c-0.263-0.273-0.357-0.725-0.357-1.323v-2.771h-0.787v-0.703h0.787v-1.218L250.162,401.45z"/>
			<path fill="#FFFFFF" d="M253.55,401.481c0.011,0.315-0.22,0.567-0.588,0.567c-0.325,0-0.556-0.252-0.556-0.567
				c0-0.325,0.242-0.577,0.578-0.577C253.33,400.904,253.55,401.156,253.55,401.481z M252.522,407.99v-5.081h0.924v5.081H252.522z"
				/>
			<path fill="#FFFFFF" d="M254.976,404.284c0-0.524-0.01-0.955-0.042-1.375h0.819l0.052,0.84h0.021
				c0.252-0.483,0.84-0.955,1.68-0.955c0.703,0,1.795,0.42,1.795,2.162v3.034h-0.924v-2.929c0-0.819-0.304-1.501-1.176-1.501
				c-0.608,0-1.081,0.43-1.238,0.945c-0.042,0.115-0.063,0.273-0.063,0.431v3.055h-0.924V404.284z"/>
			<path fill="#FFFFFF" d="M265.176,402.909c-0.021,0.367-0.042,0.777-0.042,1.396v2.95c0,1.166-0.231,1.879-0.725,2.32
				c-0.493,0.462-1.207,0.609-1.848,0.609c-0.608,0-1.28-0.147-1.69-0.42l0.231-0.704c0.336,0.21,0.861,0.399,1.491,0.399
				c0.945,0,1.638-0.493,1.638-1.774v-0.566h-0.021c-0.283,0.472-0.829,0.85-1.617,0.85c-1.26,0-2.163-1.071-2.163-2.478
				c0-1.722,1.123-2.698,2.289-2.698c0.882,0,1.365,0.462,1.585,0.882h0.021l0.042-0.767H265.176z M264.221,404.914
				c0-0.157-0.011-0.294-0.053-0.42c-0.168-0.535-0.619-0.976-1.291-0.976c-0.882,0-1.512,0.746-1.512,1.921
				c0,0.997,0.504,1.826,1.501,1.826c0.567,0,1.081-0.356,1.281-0.944c0.052-0.158,0.074-0.336,0.074-0.494V404.914z"/>
		</g>
		<g enable-background="new    ">
			<path fill="#FFFFFF" d="M209.535,413.483h-2.152v-0.777h5.239v0.777h-2.163v6.299h-0.924V413.483z"/>
			<path fill="#FFFFFF" d="M213.374,416.286c0-0.598-0.011-1.112-0.042-1.585h0.808l0.032,0.997h0.042
				c0.23-0.682,0.787-1.112,1.406-1.112c0.105,0,0.179,0.01,0.263,0.031v0.871c-0.095-0.021-0.189-0.031-0.315-0.031
				c-0.651,0-1.113,0.493-1.239,1.187c-0.021,0.126-0.042,0.272-0.042,0.43v2.708h-0.913V416.286z"/>
			<path fill="#FFFFFF" d="M219.617,419.782l-0.073-0.641h-0.031c-0.284,0.399-0.83,0.756-1.554,0.756
				c-1.029,0-1.554-0.724-1.554-1.459c0-1.229,1.092-1.9,3.055-1.89v-0.105c0-0.42-0.115-1.176-1.155-1.176
				c-0.472,0-0.966,0.147-1.323,0.378l-0.21-0.609c0.42-0.273,1.029-0.451,1.669-0.451c1.554,0,1.932,1.06,1.932,2.078v1.9
				c0,0.441,0.021,0.871,0.084,1.218H219.617z M219.481,417.189c-1.008-0.021-2.152,0.157-2.152,1.144
				c0,0.598,0.398,0.882,0.871,0.882c0.661,0,1.081-0.42,1.229-0.85c0.031-0.095,0.052-0.2,0.052-0.294V417.189z"/>
			<path fill="#FFFFFF" d="M222.89,413.273c0.01,0.315-0.221,0.567-0.588,0.567c-0.326,0-0.557-0.252-0.557-0.567
				c0-0.325,0.241-0.577,0.577-0.577C222.669,412.696,222.89,412.948,222.89,413.273z M221.861,419.782v-5.081h0.924v5.081H221.861z
				"/>
			<path fill="#FFFFFF" d="M224.316,416.076c0-0.524-0.011-0.955-0.042-1.375h0.818l0.053,0.84h0.021
				c0.252-0.483,0.84-0.955,1.68-0.955c0.704,0,1.795,0.42,1.795,2.162v3.034h-0.924v-2.929c0-0.819-0.305-1.501-1.176-1.501
				c-0.609,0-1.082,0.43-1.239,0.945c-0.042,0.115-0.063,0.273-0.063,0.431v3.055h-0.924V416.076z"/>
			<path fill="#FFFFFF" d="M231.166,413.273c0.011,0.315-0.22,0.567-0.588,0.567c-0.325,0-0.556-0.252-0.556-0.567
				c0-0.325,0.242-0.577,0.578-0.577C230.946,412.696,231.166,412.948,231.166,413.273z M230.138,419.782v-5.081h0.924v5.081
				H230.138z"/>
			<path fill="#FFFFFF" d="M232.593,416.076c0-0.524-0.011-0.955-0.042-1.375h0.818l0.053,0.84h0.021
				c0.252-0.483,0.84-0.955,1.68-0.955c0.704,0,1.795,0.42,1.795,2.162v3.034h-0.924v-2.929c0-0.819-0.305-1.501-1.176-1.501
				c-0.609,0-1.082,0.43-1.239,0.945c-0.042,0.115-0.063,0.273-0.063,0.431v3.055h-0.924V416.076z"/>
			<path fill="#FFFFFF" d="M242.793,414.701c-0.021,0.367-0.042,0.777-0.042,1.396v2.95c0,1.166-0.231,1.879-0.724,2.32
				c-0.494,0.462-1.208,0.609-1.848,0.609c-0.609,0-1.281-0.147-1.69-0.42l0.231-0.704c0.336,0.21,0.861,0.399,1.491,0.399
				c0.945,0,1.638-0.493,1.638-1.774v-0.566h-0.021c-0.284,0.472-0.83,0.85-1.617,0.85c-1.26,0-2.163-1.071-2.163-2.478
				c0-1.722,1.124-2.698,2.289-2.698c0.882,0,1.365,0.462,1.585,0.882h0.021l0.042-0.767H242.793z M241.837,416.706
				c0-0.157-0.01-0.294-0.052-0.42c-0.168-0.535-0.62-0.976-1.292-0.976c-0.882,0-1.512,0.746-1.512,1.921
				c0,0.997,0.504,1.826,1.501,1.826c0.567,0,1.082-0.356,1.281-0.944c0.053-0.158,0.073-0.336,0.073-0.494V416.706z"/>
			<path fill="#FFFFFF" d="M246.408,418.669c0.409,0.252,1.008,0.462,1.638,0.462c0.935,0,1.48-0.494,1.48-1.208
				c0-0.661-0.378-1.039-1.333-1.406c-1.155-0.41-1.869-1.008-1.869-2.005c0-1.102,0.913-1.921,2.289-1.921
				c0.724,0,1.25,0.168,1.564,0.347l-0.252,0.745c-0.23-0.126-0.703-0.336-1.344-0.336c-0.966,0-1.333,0.578-1.333,1.061
				c0,0.661,0.431,0.987,1.407,1.365c1.197,0.462,1.806,1.04,1.806,2.079c0,1.092-0.808,2.037-2.478,2.037
				c-0.682,0-1.428-0.2-1.806-0.452L246.408,418.669z"/>
			<path fill="#FFFFFF" d="M251.675,416.359c0-0.651-0.021-1.176-0.042-1.659h0.829l0.042,0.871h0.021
				c0.378-0.619,0.976-0.986,1.806-0.986c1.228,0,2.152,1.039,2.152,2.582c0,1.827-1.112,2.729-2.31,2.729
				c-0.672,0-1.26-0.294-1.564-0.798h-0.021v2.761h-0.913V416.359z M252.588,417.713c0,0.137,0.021,0.263,0.042,0.378
				c0.168,0.641,0.725,1.082,1.386,1.082c0.977,0,1.543-0.798,1.543-1.963c0-1.018-0.535-1.89-1.512-1.89
				c-0.63,0-1.218,0.452-1.396,1.145c-0.032,0.115-0.063,0.252-0.063,0.378V417.713z"/>
			<path fill="#FFFFFF" d="M260.457,419.782l-0.073-0.641h-0.031c-0.284,0.399-0.83,0.756-1.554,0.756
				c-1.029,0-1.554-0.724-1.554-1.459c0-1.229,1.092-1.9,3.055-1.89v-0.105c0-0.42-0.115-1.176-1.155-1.176
				c-0.472,0-0.966,0.147-1.323,0.378l-0.21-0.609c0.42-0.273,1.029-0.451,1.669-0.451c1.554,0,1.932,1.06,1.932,2.078v1.9
				c0,0.441,0.021,0.871,0.084,1.218H260.457z M260.321,417.189c-1.008-0.021-2.152,0.157-2.152,1.144
				c0,0.598,0.398,0.882,0.871,0.882c0.661,0,1.081-0.42,1.229-0.85c0.031-0.095,0.052-0.2,0.052-0.294V417.189z"/>
			<path fill="#FFFFFF" d="M266.322,419.593c-0.242,0.126-0.777,0.294-1.459,0.294c-1.532,0-2.53-1.04-2.53-2.593
				c0-1.564,1.071-2.698,2.729-2.698c0.546,0,1.029,0.136,1.281,0.262l-0.21,0.714c-0.221-0.126-0.567-0.241-1.071-0.241
				c-1.166,0-1.795,0.861-1.795,1.921c0,1.176,0.756,1.9,1.764,1.9c0.525,0,0.872-0.137,1.134-0.252L266.322,419.593z"/>
			<path fill="#FFFFFF" d="M267.914,417.409c0.021,1.25,0.819,1.764,1.743,1.764c0.662,0,1.06-0.116,1.407-0.262l0.157,0.661
				c-0.325,0.147-0.882,0.315-1.69,0.315c-1.564,0-2.499-1.029-2.499-2.562s0.903-2.74,2.383-2.74c1.659,0,2.1,1.459,2.1,2.394
				c0,0.188-0.021,0.336-0.031,0.43H267.914z M270.623,416.748c0.01-0.588-0.242-1.501-1.281-1.501
				c-0.935,0-1.344,0.861-1.417,1.501H270.623z"/>
		</g>
	</g>
	<g>
		<g>
			<g opacity="0.89">
				
					<image overflow="visible" enable-background="new    " width="813" height="654" xlink:href="482D4A26.png"  transform="matrix(0.2513 0 0 0.2513 365.4543 242.2241)">
				</image>
			</g>
			
				<linearGradient id="SVGID_16_" gradientUnits="userSpaceOnUse" x1="452.5754" y1="727.2954" x2="452.5754" y2="811.1073" gradientTransform="matrix(1.0528 0 0 -1.0528 -0.0269 1122.6768)">
				<stop  offset="0" style="stop-color:#CFD4FF"/>
				<stop  offset="0.2805" style="stop-color:#D4D9FF"/>
				<stop  offset="1" style="stop-color:#DCE1FF"/>
			</linearGradient>
			<path fill="url(#SVGID_16_)" d="M415.243,268.703H537.69c1.474,0,2.737,1.158,2.737,2.737V354.3c0,1.474-1.158,2.737-2.737,2.737
				H415.243c-1.475,0-2.738-1.158-2.738-2.737V271.44C412.611,269.861,413.769,268.703,415.243,268.703z"/>
		</g>
		
			<linearGradient id="SVGID_17_" gradientUnits="userSpaceOnUse" x1="452.5754" y1="733.5073" x2="452.5754" y2="792.8081" gradientTransform="matrix(1.0528 0 0 -1.0528 -0.0269 1122.6768)">
			<stop  offset="0" style="stop-color:#E7F5FB"/>
			<stop  offset="0.8002" style="stop-color:#F1F4F6"/>
			<stop  offset="1" style="stop-color:#F4F4F4"/>
		</linearGradient>
		<rect x="419.56" y="287.97" fill="url(#SVGID_17_)" width="113.813" height="62.434"/>
		<g opacity="0.61">
			
				<image overflow="visible" enable-background="new    " width="396" height="392" xlink:href="6E8BB710.png"  transform="matrix(0.2511 0 0 0.2511 390.093 248.6528)">
			</image>
		</g>
		<rect x="424.297" y="283.022" fill="#F0AD4E" width="22.742" height="22.742"/>
		<rect x="432.825" y="332.927" fill="#C3C7CB" width="37.481" height="2.316"/>
		<rect x="431.878" y="319.977" fill="#72D05B" width="21.057" height="1.158"/>
		<rect x="459.779" y="319.977" opacity="0.42" fill="#C3C7CB" enable-background="new    " width="65.171" height="1.158"/>
		
			<linearGradient id="SVGID_18_" gradientUnits="userSpaceOnUse" x1="2791.0276" y1="-1241.0308" x2="2791.0276" y2="-1233.5869" gradientTransform="matrix(0 1.0528 1.0528 0 1738.3679 -2644.136)">
			<stop  offset="0" style="stop-color:#E7F5FB"/>
			<stop  offset="1" style="stop-color:#F4F4F4"/>
		</linearGradient>
		<polygon opacity="0.5" fill="url(#SVGID_18_)" enable-background="new    " points="439.564,296.604 439.564,292.077 
			435.668,289.865 431.773,292.077 431.773,296.604 435.668,298.92 		"/>
		<g>
			<g enable-background="new    ">
				<path fill="#4C72E3" d="M460.911,278.307c-0.053-0.987-0.115-2.173-0.104-3.055h-0.032c-0.241,0.829-0.535,1.711-0.892,2.688
					l-1.25,3.433h-0.692l-1.145-3.37c-0.336-0.997-0.619-1.91-0.819-2.75h-0.021c-0.021,0.882-0.073,2.068-0.137,3.128l-0.188,3.034
					h-0.871l0.493-7.076h1.165l1.207,3.422c0.294,0.871,0.535,1.648,0.714,2.383h0.032c0.178-0.714,0.43-1.49,0.745-2.383
					l1.26-3.422h1.165l0.441,7.076h-0.893L460.911,278.307z"/>
				<path fill="#4C72E3" d="M463.688,276.333l1.112,3.002c0.116,0.336,0.241,0.735,0.325,1.04h0.021
					c0.095-0.305,0.199-0.693,0.325-1.061l1.008-2.981h0.977l-1.386,3.622c-0.661,1.742-1.113,2.635-1.742,3.181
					c-0.452,0.399-0.903,0.557-1.135,0.599l-0.23-0.777c0.23-0.073,0.535-0.22,0.809-0.451c0.252-0.199,0.566-0.557,0.776-1.029
					c0.042-0.094,0.073-0.168,0.073-0.22c0-0.053-0.021-0.126-0.063-0.242l-1.879-4.682H463.688z"/>
				<path fill="#4C72E3" d="M471.892,275.116h-2.152v-0.777h5.239v0.777h-2.163v6.299h-0.924V275.116z"/>
				<path fill="#4C72E3" d="M476.244,279.042c0.021,1.25,0.819,1.764,1.743,1.764c0.661,0,1.061-0.116,1.407-0.262l0.157,0.661
					c-0.325,0.147-0.882,0.315-1.69,0.315c-1.564,0-2.498-1.029-2.498-2.562s0.902-2.74,2.383-2.74c1.658,0,2.1,1.459,2.1,2.394
					c0,0.188-0.021,0.336-0.031,0.43H476.244z M478.953,278.38c0.011-0.588-0.241-1.501-1.281-1.501
					c-0.934,0-1.344,0.861-1.417,1.501H478.953z"/>
				<path fill="#4C72E3" d="M483.8,281.415l-0.073-0.641h-0.032c-0.283,0.399-0.829,0.756-1.554,0.756
					c-1.028,0-1.554-0.724-1.554-1.459c0-1.229,1.092-1.9,3.056-1.89v-0.105c0-0.42-0.116-1.176-1.155-1.176
					c-0.473,0-0.966,0.147-1.323,0.378l-0.209-0.609c0.42-0.273,1.028-0.451,1.669-0.451c1.554,0,1.932,1.06,1.932,2.078v1.9
					c0,0.441,0.021,0.871,0.084,1.218H483.8z M483.663,278.822c-1.008-0.021-2.152,0.157-2.152,1.144
					c0,0.598,0.399,0.882,0.872,0.882c0.661,0,1.081-0.42,1.228-0.85c0.032-0.095,0.053-0.2,0.053-0.294V278.822z"/>
				<path fill="#4C72E3" d="M486.042,277.708c0-0.524-0.011-0.955-0.042-1.375h0.809l0.041,0.819h0.032
					c0.283-0.483,0.756-0.934,1.596-0.934c0.692,0,1.218,0.42,1.438,1.018h0.021c0.157-0.284,0.356-0.504,0.567-0.662
					c0.304-0.23,0.64-0.356,1.123-0.356c0.672,0,1.669,0.44,1.669,2.204v2.992h-0.903v-2.876c0-0.976-0.356-1.564-1.102-1.564
					c-0.525,0-0.935,0.388-1.092,0.84c-0.042,0.126-0.074,0.294-0.074,0.462v3.139h-0.902v-3.044c0-0.808-0.357-1.396-1.061-1.396
					c-0.577,0-0.997,0.462-1.145,0.924c-0.052,0.136-0.073,0.294-0.073,0.451v3.065h-0.902V277.708z"/>
			</g>
		</g>
		<g>
			<g enable-background="new    ">
				<path fill="#A6A8AB" d="M456.912,292.722h0.775v4.019c0,1.595-0.784,2.085-1.818,2.085c-0.285,0-0.633-0.063-0.828-0.143
					l0.115-0.633c0.16,0.063,0.393,0.116,0.65,0.116c0.695,0,1.105-0.312,1.105-1.488V292.722z"/>
				<path fill="#A6A8AB" d="M458.952,292.401h0.784v2.691h0.018c0.125-0.223,0.321-0.419,0.562-0.553
					c0.231-0.133,0.508-0.223,0.802-0.223c0.58,0,1.507,0.356,1.507,1.845v2.566h-0.784v-2.478c0-0.695-0.259-1.283-0.998-1.283
					c-0.508,0-0.909,0.356-1.052,0.784c-0.045,0.107-0.054,0.223-0.054,0.375v2.602h-0.784V292.401z"/>
				<path fill="#A6A8AB" d="M467.8,296.536c0,1.595-1.105,2.291-2.147,2.291c-1.168,0-2.067-0.855-2.067-2.219
					c0-1.443,0.944-2.29,2.139-2.29C466.962,294.317,467.8,295.217,467.8,296.536z M464.378,296.581c0,0.944,0.544,1.657,1.31,1.657
					c0.749,0,1.311-0.704,1.311-1.675c0-0.73-0.365-1.657-1.293-1.657C464.78,294.905,464.378,295.761,464.378,296.581z"/>
				<path fill="#A6A8AB" d="M468.788,295.583c0-0.446-0.009-0.811-0.035-1.167h0.694l0.045,0.713h0.018
					c0.214-0.41,0.713-0.811,1.426-0.811c0.598,0,1.524,0.356,1.524,1.836v2.575h-0.784v-2.486c0-0.695-0.259-1.274-0.998-1.274
					c-0.518,0-0.918,0.366-1.052,0.802c-0.036,0.098-0.054,0.232-0.054,0.365v2.593h-0.784V295.583z"/>
				<path fill="#A6A8AB" d="M476.629,298.728l-1.523-6.006h0.819l0.713,3.039c0.179,0.749,0.339,1.497,0.446,2.076h0.018
					c0.098-0.597,0.285-1.31,0.49-2.085l0.802-3.029h0.811l0.731,3.047c0.169,0.713,0.329,1.426,0.418,2.059h0.019
					c0.124-0.66,0.294-1.328,0.481-2.077l0.793-3.029h0.793l-1.702,6.006h-0.812l-0.757-3.128c-0.188-0.766-0.312-1.354-0.393-1.96
					h-0.018c-0.106,0.597-0.24,1.185-0.463,1.96l-0.855,3.128H476.629z"/>
				<path fill="#A6A8AB" d="M484.032,293.203c0.009,0.267-0.187,0.481-0.499,0.481c-0.275,0-0.472-0.214-0.472-0.481
					c0-0.276,0.205-0.49,0.49-0.49C483.846,292.713,484.032,292.927,484.032,293.203z M483.159,298.728v-4.313h0.784v4.313H483.159z
					"/>
				<path fill="#A6A8AB" d="M488.319,298.568c-0.205,0.106-0.659,0.249-1.238,0.249c-1.301,0-2.147-0.882-2.147-2.201
					c0-1.328,0.909-2.291,2.316-2.291c0.464,0,0.874,0.116,1.087,0.223l-0.178,0.606c-0.188-0.107-0.481-0.205-0.909-0.205
					c-0.989,0-1.523,0.73-1.523,1.631c0,0.998,0.642,1.613,1.497,1.613c0.445,0,0.739-0.116,0.962-0.214L488.319,298.568z"/>
				<path fill="#A6A8AB" d="M490.012,296.393h0.018c0.107-0.151,0.259-0.338,0.384-0.49l1.265-1.488h0.945l-1.667,1.773l1.898,2.54
					h-0.954l-1.487-2.067l-0.401,0.445v1.622h-0.775v-6.327h0.775V296.393z"/>
			</g>
		</g>
		<g>
			<g enable-background="new    ">
				<path fill="#C9CACB" d="M457.432,305.399c-0.161,0.058-0.479,0.152-0.853,0.152c-0.421,0-0.767-0.107-1.039-0.367
					c-0.238-0.23-0.387-0.602-0.387-1.034c0.004-0.828,0.572-1.434,1.504-1.434c0.321,0,0.572,0.07,0.691,0.128l-0.086,0.292
					c-0.148-0.066-0.334-0.12-0.614-0.12c-0.676,0-1.116,0.42-1.116,1.117c0,0.704,0.425,1.121,1.071,1.121
					c0.234,0,0.396-0.033,0.478-0.074v-0.828h-0.564v-0.289h0.915V305.399z"/>
				<path fill="#C9CACB" d="M457.965,304.151c0-0.235-0.004-0.437-0.017-0.622h0.317l0.013,0.392h0.016
					c0.091-0.268,0.31-0.437,0.553-0.437c0.041,0,0.069,0.004,0.103,0.013v0.342c-0.037-0.008-0.074-0.012-0.123-0.012
					c-0.256,0-0.438,0.193-0.486,0.465c-0.009,0.049-0.017,0.107-0.017,0.169v1.063h-0.358V304.151z"/>
				<path fill="#C9CACB" d="M460.416,305.523l-0.029-0.251h-0.013c-0.11,0.157-0.325,0.297-0.609,0.297
					c-0.403,0-0.609-0.284-0.609-0.573c0-0.482,0.428-0.746,1.198-0.742v-0.041c0-0.165-0.045-0.461-0.453-0.461
					c-0.186,0-0.379,0.058-0.519,0.148l-0.083-0.239c0.165-0.107,0.404-0.177,0.655-0.177c0.609,0,0.758,0.417,0.758,0.816v0.746
					c0,0.173,0.009,0.342,0.033,0.478H460.416z M460.363,304.505c-0.396-0.008-0.845,0.062-0.845,0.449
					c0,0.235,0.156,0.346,0.342,0.346c0.26,0,0.425-0.165,0.482-0.333c0.012-0.037,0.021-0.078,0.021-0.115V304.505z"/>
				<path fill="#C9CACB" d="M461.295,304.18c0-0.255-0.008-0.461-0.017-0.651h0.325l0.017,0.342h0.009
					c0.148-0.243,0.383-0.388,0.708-0.388c0.482,0,0.845,0.408,0.845,1.014c0,0.717-0.437,1.071-0.906,1.071
					c-0.264,0-0.494-0.115-0.614-0.313h-0.008v1.083h-0.358V304.18z M461.654,304.711c0,0.054,0.008,0.103,0.017,0.148
					c0.065,0.251,0.284,0.424,0.544,0.424c0.383,0,0.605-0.313,0.605-0.771c0-0.4-0.21-0.742-0.594-0.742
					c-0.247,0-0.478,0.177-0.548,0.449c-0.012,0.045-0.024,0.099-0.024,0.148V304.711z"/>
				<path fill="#C9CACB" d="M463.638,302.598H464v1.245h0.009c0.058-0.103,0.148-0.194,0.259-0.256
					c0.107-0.062,0.235-0.103,0.371-0.103c0.268,0,0.696,0.165,0.696,0.853v1.187h-0.362v-1.146c0-0.321-0.119-0.593-0.462-0.593
					c-0.234,0-0.42,0.165-0.485,0.363c-0.021,0.049-0.025,0.103-0.025,0.173v1.203h-0.362V302.598z"/>
				<path fill="#C9CACB" d="M466.325,302.969c0.005,0.124-0.086,0.222-0.23,0.222c-0.128,0-0.218-0.099-0.218-0.222
					c0-0.128,0.095-0.227,0.227-0.227C466.24,302.742,466.325,302.841,466.325,302.969z M465.922,305.523v-1.994h0.362v1.994
					H465.922z"/>
				<path fill="#C9CACB" d="M468.307,305.449c-0.095,0.049-0.305,0.115-0.572,0.115c-0.602,0-0.993-0.408-0.993-1.018
					c0-0.614,0.421-1.059,1.071-1.059c0.215,0,0.404,0.054,0.503,0.103l-0.083,0.28c-0.086-0.05-0.222-0.095-0.42-0.095
					c-0.457,0-0.704,0.338-0.704,0.754c0,0.461,0.297,0.746,0.692,0.746c0.205,0,0.342-0.054,0.444-0.099L468.307,305.449z"/>
				<path fill="#C9CACB" d="M469.615,302.783c0.218-0.033,0.478-0.058,0.762-0.058c0.515,0,0.882,0.12,1.125,0.346
					c0.247,0.227,0.392,0.548,0.392,0.997c0,0.453-0.141,0.824-0.4,1.079c-0.259,0.26-0.688,0.4-1.228,0.4
					c-0.255,0-0.47-0.013-0.65-0.033V302.783z M469.974,305.239c0.09,0.017,0.222,0.021,0.362,0.021
					c0.767,0,1.183-0.429,1.183-1.178c0.004-0.655-0.367-1.071-1.125-1.071c-0.186,0-0.325,0.017-0.42,0.037V305.239z"/>
				<path fill="#C9CACB" d="M472.546,304.592c0.008,0.49,0.321,0.692,0.684,0.692c0.26,0,0.416-0.045,0.552-0.103l0.063,0.259
					c-0.128,0.058-0.347,0.124-0.664,0.124c-0.613,0-0.98-0.403-0.98-1.005s0.354-1.076,0.936-1.076
					c0.651,0,0.824,0.573,0.824,0.939c0,0.074-0.009,0.132-0.013,0.169H472.546z M473.609,304.333
					c0.004-0.231-0.095-0.589-0.503-0.589c-0.366,0-0.527,0.338-0.556,0.589H473.609z"/>
				<path fill="#C9CACB" d="M474.357,305.152c0.107,0.07,0.297,0.144,0.479,0.144c0.264,0,0.387-0.132,0.387-0.297
					c0-0.173-0.103-0.268-0.37-0.366c-0.358-0.128-0.527-0.326-0.527-0.564c0-0.322,0.259-0.585,0.688-0.585
					c0.202,0,0.379,0.058,0.49,0.124l-0.091,0.264c-0.078-0.05-0.222-0.116-0.407-0.116c-0.215,0-0.334,0.124-0.334,0.272
					c0,0.165,0.119,0.239,0.379,0.338c0.346,0.132,0.523,0.305,0.523,0.602c0,0.35-0.272,0.597-0.746,0.597
					c-0.218,0-0.42-0.053-0.56-0.136L474.357,305.152z"/>
				<path fill="#C9CACB" d="M476.441,302.969c0.005,0.124-0.086,0.222-0.23,0.222c-0.128,0-0.218-0.099-0.218-0.222
					c0-0.128,0.095-0.227,0.227-0.227C476.355,302.742,476.441,302.841,476.441,302.969z M476.037,305.523v-1.994h0.362v1.994
					H476.037z"/>
				<path fill="#C9CACB" d="M478.718,303.529c-0.008,0.145-0.017,0.305-0.017,0.548v1.158c0,0.458-0.09,0.738-0.284,0.911
					c-0.193,0.181-0.474,0.239-0.725,0.239c-0.239,0-0.503-0.058-0.663-0.165l0.09-0.276c0.132,0.082,0.338,0.156,0.585,0.156
					c0.371,0,0.644-0.193,0.644-0.696v-0.222h-0.009c-0.111,0.185-0.325,0.333-0.635,0.333c-0.494,0-0.849-0.42-0.849-0.972
					c0-0.676,0.441-1.059,0.898-1.059c0.346,0,0.535,0.182,0.622,0.346h0.008l0.017-0.301H478.718z M478.343,304.316
					c0-0.062-0.004-0.115-0.021-0.165c-0.065-0.21-0.243-0.383-0.507-0.383c-0.346,0-0.593,0.292-0.593,0.754
					c0,0.391,0.197,0.717,0.589,0.717c0.223,0,0.425-0.14,0.503-0.371c0.021-0.062,0.028-0.132,0.028-0.193V304.316z"/>
				<path fill="#C9CACB" d="M479.301,304.069c0-0.206-0.004-0.375-0.017-0.54h0.321l0.021,0.33h0.009
					c0.099-0.189,0.329-0.375,0.659-0.375c0.275,0,0.704,0.165,0.704,0.849v1.19h-0.362v-1.149c0-0.321-0.12-0.589-0.462-0.589
					c-0.238,0-0.424,0.169-0.485,0.371c-0.017,0.045-0.025,0.107-0.025,0.169v1.199h-0.362V304.069z"/>
			</g>
		</g>
	</g>
	<g>
		<g enable-background="new    ">
			<path fill="#A6A8AB" d="M202.67,350.739h0.527v2.732c0,1.084-0.533,1.417-1.236,1.417c-0.194,0-0.43-0.042-0.563-0.097
				l0.079-0.43c0.109,0.042,0.267,0.079,0.442,0.079c0.472,0,0.751-0.212,0.751-1.011V350.739z"/>
			<path fill="#A6A8AB" d="M205.682,354.822l-0.042-0.37h-0.019c-0.163,0.23-0.479,0.436-0.896,0.436
				c-0.593,0-0.896-0.418-0.896-0.842c0-0.709,0.63-1.097,1.763-1.09v-0.061c0-0.242-0.066-0.679-0.666-0.679
				c-0.273,0-0.558,0.085-0.763,0.218l-0.122-0.352c0.243-0.157,0.594-0.26,0.963-0.26c0.896,0,1.115,0.612,1.115,1.199v1.097
				c0,0.254,0.012,0.503,0.048,0.703H205.682z M205.603,353.326c-0.582-0.012-1.242,0.091-1.242,0.66
				c0,0.345,0.23,0.509,0.503,0.509c0.381,0,0.624-0.242,0.708-0.491c0.018-0.054,0.03-0.115,0.03-0.169V353.326z"/>
			<path fill="#A6A8AB" d="M206.981,352.684c0-0.303-0.006-0.551-0.024-0.794h0.466l0.024,0.473h0.018
				c0.164-0.279,0.436-0.539,0.921-0.539c0.4,0,0.703,0.242,0.83,0.587h0.012c0.091-0.164,0.206-0.291,0.327-0.381
				c0.176-0.133,0.37-0.206,0.648-0.206c0.388,0,0.963,0.254,0.963,1.272v1.727h-0.521v-1.66c0-0.563-0.206-0.903-0.636-0.903
				c-0.303,0-0.539,0.224-0.63,0.485c-0.024,0.073-0.042,0.169-0.042,0.267v1.811h-0.521v-1.757c0-0.466-0.206-0.806-0.612-0.806
				c-0.333,0-0.576,0.267-0.661,0.533c-0.03,0.079-0.042,0.169-0.042,0.26v1.769h-0.521V352.684z"/>
			<path fill="#A6A8AB" d="M212.333,353.453c0.012,0.721,0.472,1.018,1.005,1.018c0.382,0,0.612-0.066,0.812-0.151l0.091,0.382
				c-0.188,0.085-0.509,0.182-0.976,0.182c-0.902,0-1.442-0.594-1.442-1.478s0.521-1.581,1.375-1.581
				c0.957,0,1.211,0.842,1.211,1.381c0,0.109-0.012,0.194-0.018,0.248H212.333z M213.896,353.071
				c0.006-0.339-0.139-0.867-0.739-0.867c-0.539,0-0.775,0.497-0.818,0.867H213.896z"/>
			<path fill="#A6A8AB" d="M215.001,354.276c0.157,0.103,0.436,0.212,0.703,0.212c0.388,0,0.569-0.194,0.569-0.437
				c0-0.254-0.151-0.394-0.545-0.539c-0.527-0.188-0.775-0.479-0.775-0.83c0-0.473,0.381-0.86,1.011-0.86
				c0.297,0,0.558,0.085,0.721,0.182l-0.133,0.388c-0.115-0.073-0.327-0.169-0.6-0.169c-0.315,0-0.491,0.182-0.491,0.4
				c0,0.242,0.175,0.351,0.557,0.497c0.509,0.194,0.77,0.448,0.77,0.884c0,0.515-0.4,0.878-1.097,0.878
				c-0.321,0-0.618-0.079-0.824-0.2L215.001,354.276z"/>
		</g>
	</g>
	<g>
		<g enable-background="new    ">
			<path fill="#C9CACB" d="M203.181,358.613c-0.014-0.264-0.031-0.581-0.028-0.817h-0.009c-0.064,0.222-0.143,0.458-0.238,0.719
				l-0.334,0.918h-0.185l-0.306-0.901c-0.09-0.267-0.166-0.511-0.219-0.735h-0.005c-0.005,0.236-0.02,0.553-0.037,0.836l-0.05,0.812
				h-0.233l0.132-1.893h0.312l0.323,0.916c0.079,0.233,0.143,0.441,0.191,0.637h0.009c0.047-0.191,0.115-0.398,0.199-0.637
				l0.337-0.916h0.312l0.118,1.893h-0.239L203.181,358.613z"/>
			<path fill="#C9CACB" d="M204.583,359.444l-0.02-0.171h-0.008c-0.076,0.107-0.222,0.202-0.416,0.202
				c-0.275,0-0.416-0.194-0.416-0.39c0-0.329,0.292-0.508,0.817-0.505v-0.028c0-0.112-0.031-0.314-0.309-0.314
				c-0.126,0-0.258,0.039-0.354,0.101l-0.057-0.163c0.112-0.073,0.275-0.121,0.447-0.121c0.416,0,0.517,0.283,0.517,0.556v0.508
				c0,0.118,0.005,0.233,0.022,0.326H204.583z M204.546,358.75c-0.27-0.006-0.576,0.042-0.576,0.306c0,0.16,0.107,0.236,0.233,0.236
				c0.177,0,0.29-0.112,0.329-0.228c0.008-0.025,0.014-0.054,0.014-0.079V358.75z"/>
			<path fill="#C9CACB" d="M205.18,358.509c0-0.16-0.003-0.297-0.011-0.424h0.216l0.009,0.267h0.011
				c0.062-0.182,0.21-0.297,0.376-0.297c0.028,0,0.048,0.003,0.07,0.008v0.233c-0.025-0.005-0.05-0.008-0.084-0.008
				c-0.174,0-0.297,0.132-0.331,0.317c-0.006,0.034-0.011,0.073-0.011,0.115v0.725h-0.244V358.509z"/>
			<path fill="#C9CACB" d="M206.34,358.708h0.006c0.033-0.048,0.081-0.107,0.121-0.155l0.398-0.469h0.298l-0.525,0.559l0.598,0.8
				h-0.3l-0.469-0.651l-0.126,0.141v0.511h-0.244v-1.993h0.244V358.708z"/>
			<path fill="#C9CACB" d="M207.547,358.809c0.006,0.334,0.219,0.472,0.466,0.472c0.177,0,0.284-0.031,0.376-0.07l0.042,0.177
				c-0.087,0.04-0.236,0.084-0.452,0.084c-0.418,0-0.668-0.275-0.668-0.686c0-0.41,0.241-0.732,0.637-0.732
				c0.443,0,0.562,0.39,0.562,0.64c0,0.05-0.006,0.09-0.008,0.115H207.547z M208.272,358.632c0.003-0.157-0.064-0.401-0.343-0.401
				c-0.25,0-0.359,0.23-0.379,0.401H208.272z"/>
			<path fill="#C9CACB" d="M209.11,357.695v0.39h0.354v0.188h-0.354v0.733c0,0.168,0.048,0.264,0.186,0.264
				c0.064,0,0.112-0.009,0.143-0.017l0.011,0.185c-0.048,0.02-0.124,0.034-0.219,0.034c-0.115,0-0.208-0.037-0.267-0.104
				c-0.07-0.073-0.095-0.194-0.095-0.354v-0.741h-0.21v-0.188h0.21v-0.326L209.11,357.695z"/>
			<path fill="#C9CACB" d="M210.015,357.703c0.003,0.084-0.059,0.152-0.157,0.152c-0.087,0-0.148-0.067-0.148-0.152
				c0-0.087,0.064-0.154,0.154-0.154C209.956,357.549,210.015,357.616,210.015,357.703z M209.74,359.444v-1.359h0.247v1.359H209.74z
				"/>
			<path fill="#C9CACB" d="M210.395,358.453c0-0.14-0.003-0.255-0.011-0.368h0.219l0.014,0.225h0.005
				c0.067-0.129,0.225-0.255,0.449-0.255c0.188,0,0.48,0.112,0.48,0.578v0.812h-0.247v-0.783c0-0.219-0.082-0.401-0.314-0.401
				c-0.163,0-0.289,0.115-0.332,0.252c-0.011,0.031-0.017,0.073-0.017,0.115v0.817h-0.247V358.453z"/>
			<path fill="#C9CACB" d="M213.12,358.085c-0.005,0.098-0.011,0.208-0.011,0.374v0.789c0,0.312-0.062,0.502-0.194,0.62
				c-0.132,0.124-0.323,0.163-0.494,0.163c-0.163,0-0.343-0.04-0.452-0.112l0.062-0.188c0.09,0.057,0.23,0.107,0.398,0.107
				c0.253,0,0.438-0.132,0.438-0.475v-0.151h-0.005c-0.076,0.126-0.222,0.227-0.433,0.227c-0.337,0-0.578-0.286-0.578-0.662
				c0-0.461,0.3-0.722,0.612-0.722c0.236,0,0.365,0.124,0.424,0.236h0.006l0.011-0.205H213.12z M212.865,358.621
				c0-0.042-0.002-0.079-0.014-0.112c-0.045-0.143-0.166-0.261-0.345-0.261c-0.236,0-0.404,0.2-0.404,0.514
				c0,0.267,0.135,0.488,0.402,0.488c0.151,0,0.289-0.095,0.342-0.252c0.014-0.042,0.02-0.09,0.02-0.132V358.621z"/>
		</g>
	</g>
	<g>
		<g enable-background="new    ">
			<path fill="#A6A8AB" d="M278.639,350.739h0.527v3.641h1.745v0.442h-2.271V350.739z"/>
			<path fill="#A6A8AB" d="M283.935,354.022c0,0.303,0.006,0.57,0.024,0.8h-0.473l-0.03-0.479h-0.012
				c-0.139,0.236-0.448,0.545-0.969,0.545c-0.46,0-1.012-0.254-1.012-1.284v-1.714h0.533v1.624c0,0.558,0.17,0.933,0.654,0.933
				c0.357,0,0.606-0.249,0.703-0.485c0.03-0.079,0.048-0.175,0.048-0.272v-1.799h0.533V354.022z"/>
			<path fill="#A6A8AB" d="M285.415,351.066c0.006,0.182-0.127,0.327-0.339,0.327c-0.188,0-0.321-0.146-0.321-0.327
				c0-0.188,0.14-0.333,0.333-0.333C285.288,350.733,285.415,350.878,285.415,351.066z M284.822,354.822v-2.932h0.533v2.932H284.822
				z"/>
			<path fill="#A6A8AB" d="M286.168,354.276c0.157,0.103,0.436,0.212,0.703,0.212c0.388,0,0.569-0.194,0.569-0.437
				c0-0.254-0.151-0.394-0.545-0.539c-0.527-0.188-0.775-0.479-0.775-0.83c0-0.473,0.381-0.86,1.011-0.86
				c0.297,0,0.558,0.085,0.721,0.182l-0.133,0.388c-0.115-0.073-0.327-0.169-0.6-0.169c-0.315,0-0.491,0.182-0.491,0.4
				c0,0.242,0.175,0.351,0.557,0.497c0.509,0.194,0.77,0.448,0.77,0.884c0,0.515-0.4,0.878-1.097,0.878
				c-0.321,0-0.618-0.079-0.824-0.2L286.168,354.276z"/>
		</g>
	</g>
	<g>
		<g enable-background="new    ">
			<path fill="#C9CACB" d="M279.37,358.557h-0.736v0.682h0.82v0.205h-1.064v-1.893h1.022v0.205h-0.778v0.598h0.736V358.557z"/>
			<path fill="#C9CACB" d="M280.933,357.451v1.642c0,0.121,0.003,0.258,0.011,0.351h-0.222l-0.011-0.236h-0.006
				c-0.076,0.152-0.241,0.267-0.463,0.267c-0.329,0-0.581-0.278-0.581-0.69c-0.003-0.452,0.278-0.73,0.609-0.73
				c0.208,0,0.348,0.098,0.41,0.208h0.005v-0.811H280.933z M280.686,358.638c0-0.031-0.003-0.073-0.011-0.104
				c-0.037-0.157-0.171-0.287-0.356-0.287c-0.255,0-0.407,0.225-0.407,0.525c0,0.275,0.135,0.502,0.402,0.502
				c0.166,0,0.317-0.109,0.362-0.295c0.008-0.034,0.011-0.067,0.011-0.106V358.638z"/>
			<path fill="#C9CACB" d="M281.614,357.703c0.003,0.084-0.059,0.152-0.157,0.152c-0.087,0-0.149-0.067-0.149-0.152
				c0-0.087,0.065-0.154,0.155-0.154C281.555,357.549,281.614,357.616,281.614,357.703z M281.339,359.444v-1.359h0.247v1.359
				H281.339z"/>
			<path fill="#C9CACB" d="M282.292,357.695v0.39h0.354v0.188h-0.354v0.733c0,0.168,0.048,0.264,0.186,0.264
				c0.064,0,0.112-0.009,0.143-0.017l0.011,0.185c-0.048,0.02-0.124,0.034-0.219,0.034c-0.115,0-0.208-0.037-0.267-0.104
				c-0.07-0.073-0.095-0.194-0.095-0.354v-0.741h-0.211v-0.188h0.211v-0.326L282.292,357.695z"/>
			<path fill="#C9CACB" d="M284.151,358.753c0,0.502-0.348,0.721-0.676,0.721c-0.368,0-0.651-0.27-0.651-0.699
				c0-0.455,0.297-0.722,0.674-0.722C283.887,358.054,284.151,358.337,284.151,358.753z M283.073,358.767
				c0,0.298,0.171,0.522,0.413,0.522c0.236,0,0.413-0.222,0.413-0.528c0-0.23-0.115-0.522-0.407-0.522
				S283.073,358.509,283.073,358.767z"/>
			<path fill="#C9CACB" d="M284.459,358.509c0-0.16-0.003-0.297-0.011-0.424h0.216l0.008,0.267h0.011
				c0.062-0.182,0.21-0.297,0.376-0.297c0.028,0,0.048,0.003,0.07,0.008v0.233c-0.025-0.005-0.051-0.008-0.084-0.008
				c-0.174,0-0.298,0.132-0.332,0.317c-0.005,0.034-0.011,0.073-0.011,0.115v0.725h-0.244V358.509z"/>
		</g>
	</g>
	<g>
		<g enable-background="new    ">
			<path fill="#A6A8AB" d="M351.881,354.18c0.236,0.146,0.582,0.267,0.945,0.267c0.539,0,0.854-0.285,0.854-0.697
				c0-0.382-0.218-0.6-0.769-0.812c-0.667-0.236-1.079-0.582-1.079-1.157c0-0.636,0.527-1.108,1.321-1.108
				c0.418,0,0.721,0.097,0.902,0.2l-0.146,0.43c-0.133-0.073-0.406-0.194-0.775-0.194c-0.558,0-0.77,0.333-0.77,0.612
				c0,0.382,0.249,0.569,0.812,0.788c0.691,0.267,1.042,0.6,1.042,1.199c0,0.63-0.466,1.175-1.43,1.175
				c-0.394,0-0.823-0.115-1.041-0.26L351.881,354.18z"/>
			<path fill="#A6A8AB" d="M355.566,351.048v0.842h0.764v0.406h-0.764v1.581c0,0.363,0.104,0.569,0.4,0.569
				c0.139,0,0.242-0.018,0.309-0.037l0.024,0.4c-0.104,0.042-0.267,0.073-0.473,0.073c-0.248,0-0.448-0.079-0.575-0.224
				c-0.151-0.158-0.206-0.418-0.206-0.763v-1.599h-0.454v-0.406h0.454v-0.703L355.566,351.048z"/>
			<path fill="#A6A8AB" d="M357.228,353.453c0.012,0.721,0.473,1.018,1.005,1.018c0.382,0,0.612-0.066,0.813-0.151l0.091,0.382
				c-0.188,0.085-0.509,0.182-0.976,0.182c-0.902,0-1.441-0.594-1.441-1.478s0.521-1.581,1.375-1.581
				c0.957,0,1.211,0.842,1.211,1.381c0,0.109-0.012,0.194-0.018,0.248H357.228z M358.79,353.071
				c0.006-0.339-0.139-0.867-0.739-0.867c-0.539,0-0.775,0.497-0.817,0.867H358.79z"/>
			<path fill="#A6A8AB" d="M360.174,351.89l0.575,1.648c0.097,0.267,0.176,0.509,0.236,0.751h0.019
				c0.066-0.242,0.151-0.484,0.248-0.751l0.569-1.648h0.558l-1.151,2.932h-0.509l-1.114-2.932H360.174z"/>
			<path fill="#A6A8AB" d="M363.181,353.453c0.012,0.721,0.473,1.018,1.005,1.018c0.382,0,0.612-0.066,0.813-0.151l0.091,0.382
				c-0.188,0.085-0.509,0.182-0.976,0.182c-0.902,0-1.441-0.594-1.441-1.478s0.521-1.581,1.375-1.581
				c0.957,0,1.211,0.842,1.211,1.381c0,0.109-0.012,0.194-0.018,0.248H363.181z M364.743,353.071
				c0.006-0.339-0.139-0.867-0.739-0.867c-0.539,0-0.775,0.497-0.817,0.867H364.743z"/>
			<path fill="#A6A8AB" d="M365.921,352.684c0-0.303-0.006-0.551-0.024-0.794h0.473l0.03,0.485h0.012
				c0.146-0.279,0.485-0.551,0.97-0.551c0.405,0,1.036,0.242,1.036,1.248v1.75h-0.533v-1.69c0-0.473-0.176-0.866-0.679-0.866
				c-0.352,0-0.624,0.248-0.715,0.545c-0.024,0.067-0.036,0.158-0.036,0.249v1.763h-0.533V352.684z"/>
		</g>
	</g>
	<g>
		<g enable-background="new    ">
			<path fill="#C9CACB" d="M352.012,358.849l-0.196,0.595h-0.253l0.643-1.893h0.295l0.646,1.893h-0.261l-0.202-0.595H352.012z
				 M352.632,358.658l-0.185-0.545c-0.043-0.123-0.07-0.235-0.099-0.345h-0.006c-0.028,0.112-0.059,0.228-0.096,0.343l-0.185,0.547
				H352.632z"/>
			<path fill="#C9CACB" d="M353.411,358.509c0-0.16-0.003-0.297-0.012-0.424h0.217l0.008,0.267h0.012
				c0.062-0.182,0.21-0.297,0.376-0.297c0.028,0,0.048,0.003,0.07,0.008v0.233c-0.025-0.005-0.051-0.008-0.084-0.008
				c-0.174,0-0.298,0.132-0.332,0.317c-0.005,0.034-0.011,0.073-0.011,0.115v0.725h-0.244V358.509z"/>
			<path fill="#C9CACB" d="M354.625,357.695v0.39h0.354v0.188h-0.354v0.733c0,0.168,0.047,0.264,0.185,0.264
				c0.065,0,0.112-0.009,0.144-0.017l0.012,0.185c-0.048,0.02-0.124,0.034-0.22,0.034c-0.115,0-0.208-0.037-0.267-0.104
				c-0.07-0.073-0.096-0.194-0.096-0.354v-0.741h-0.21v-0.188h0.21v-0.326L354.625,357.695z"/>
			<path fill="#C9CACB" d="M355.53,357.703c0.002,0.084-0.06,0.152-0.157,0.152c-0.087,0-0.149-0.067-0.149-0.152
				c0-0.087,0.064-0.154,0.154-0.154C355.47,357.549,355.53,357.616,355.53,357.703z M355.254,359.444v-1.359h0.247v1.359H355.254z"
				/>
			<path fill="#C9CACB" d="M355.876,359.191c0.073,0.048,0.202,0.099,0.326,0.099c0.18,0,0.264-0.09,0.264-0.202
				c0-0.118-0.07-0.183-0.253-0.25c-0.244-0.087-0.359-0.222-0.359-0.385c0-0.219,0.178-0.398,0.469-0.398
				c0.138,0,0.259,0.039,0.335,0.084l-0.063,0.18c-0.053-0.034-0.151-0.079-0.277-0.079c-0.146,0-0.228,0.084-0.228,0.186
				c0,0.112,0.081,0.163,0.258,0.23c0.236,0.09,0.357,0.208,0.357,0.41c0,0.238-0.186,0.407-0.509,0.407
				c-0.148,0-0.286-0.037-0.382-0.093L355.876,359.191z"/>
			<path fill="#C9CACB" d="M357.317,357.695v0.39h0.354v0.188h-0.354v0.733c0,0.168,0.047,0.264,0.185,0.264
				c0.065,0,0.112-0.009,0.144-0.017l0.012,0.185c-0.048,0.02-0.124,0.034-0.22,0.034c-0.115,0-0.208-0.037-0.267-0.104
				c-0.07-0.073-0.096-0.194-0.096-0.354v-0.741h-0.21v-0.188h0.21v-0.326L357.317,357.695z"/>
		</g>
	</g>
	<path fill="none" stroke="#C3C7CB" stroke-width="2.4" stroke-linecap="round" stroke-linejoin="round" stroke-miterlimit="10" d="
		M241.102,445.056c7.581,0,13.793,6.211,13.793,13.791s-6.212,13.793-13.793,13.793c-7.58,0-13.792-6.213-13.792-13.793"/>
	<circle fill="#C3C7CB" cx="241.102" cy="458.847" r="3.369"/>
	<g>
		<g>
			<g>
				<g>
					
						<image overflow="visible" enable-background="new    " width="871" height="696" xlink:href="6E8BB717.png"  transform="matrix(0.2506 0 0 0.2506 0.4143 353.0444)">
					</image>
				</g>
				
					<linearGradient id="SVGID_19_" gradientUnits="userSpaceOnUse" x1="89.325" y1="614.8081" x2="89.3249" y2="708.1069" gradientTransform="matrix(1.0528 0 0 -1.0528 -0.0269 1122.6768)">
					<stop  offset="0" style="stop-color:#E2EDFF"/>
					<stop  offset="1" style="stop-color:#E7F3FF"/>
				</linearGradient>
				<path fill="url(#SVGID_19_)" d="M24.111,377.146h139.817c0.632,0,1.264,0.526,1.264,1.264v95.705
					c0,0.631-0.526,1.262-1.264,1.262H24.111c-0.632,0-1.264-0.525-1.264-1.262v-95.81
					C22.952,377.673,23.479,377.146,24.111,377.146z"/>
			</g>
			<rect x="119.919" y="432.316" fill="#FFFFFF" width="31.27" height="3.58"/>
			<rect x="35.165" y="412.733" fill="#F0AD4E" width="18.214" height="10.845"/>
			<rect x="35.165" y="432.316" fill="#FFFFFF" width="40.851" height="3.58"/>
			<rect x="119.919" y="444.529" fill="#FFFFFF" width="31.27" height="3.58"/>
			<rect x="35.165" y="444.529" fill="#FFFFFF" width="40.851" height="3.58"/>
			<rect x="119.919" y="456.742" fill="#FFFFFF" width="31.27" height="3.58"/>
			<rect x="35.165" y="456.742" fill="#FFFFFF" width="40.851" height="3.58"/>
		</g>
		<g>
			<g enable-background="new    ">
				<path fill="#4C72E3" d="M60.066,392.615c-0.069-1.302-0.153-2.868-0.139-4.032h-0.042c-0.319,1.095-0.707,2.258-1.178,3.547
					l-1.649,4.53h-0.915l-1.51-4.447c-0.443-1.316-0.817-2.521-1.081-3.63h-0.028c-0.027,1.164-0.097,2.729-0.18,4.129l-0.25,4.004
					h-1.15l0.651-9.338h1.538l1.593,4.517c0.388,1.15,0.707,2.175,0.942,3.145h0.042c0.235-0.942,0.568-1.968,0.983-3.145
					l1.663-4.517h1.538l0.582,9.338h-1.178L60.066,392.615z"/>
				<path fill="#4C72E3" d="M63.737,390.01l1.469,3.963c0.152,0.443,0.319,0.97,0.43,1.372h0.028
					c0.125-0.402,0.263-0.915,0.429-1.399l1.33-3.935h1.289l-1.829,4.78c-0.873,2.3-1.468,3.478-2.3,4.198
					c-0.596,0.526-1.191,0.734-1.496,0.79l-0.305-1.025c0.305-0.097,0.707-0.291,1.066-0.596c0.333-0.263,0.749-0.734,1.025-1.358
					c0.056-0.125,0.097-0.222,0.097-0.291s-0.028-0.166-0.083-0.318l-2.48-6.18H63.737z"/>
				<path fill="#4C72E3" d="M72.757,392.2c0-0.859-0.027-1.552-0.055-2.189h1.094l0.056,1.15h0.028
					c0.499-0.817,1.289-1.303,2.383-1.303c1.621,0,2.84,1.372,2.84,3.409c0,2.411-1.469,3.602-3.048,3.602
					c-0.887,0-1.663-0.388-2.064-1.053h-0.028v3.644h-1.206V392.2z M73.963,393.987c0,0.18,0.028,0.347,0.055,0.499
					c0.222,0.845,0.956,1.427,1.829,1.427c1.289,0,2.037-1.053,2.037-2.591c0-1.344-0.707-2.494-1.995-2.494
					c-0.831,0-1.607,0.596-1.843,1.51c-0.042,0.152-0.083,0.332-0.083,0.499V393.987z"/>
				<path fill="#4C72E3" d="M80.641,392.103c0-0.79-0.014-1.469-0.055-2.092h1.067l0.042,1.316h0.055
					c0.305-0.9,1.039-1.469,1.857-1.469c0.138,0,0.235,0.014,0.346,0.042v1.15c-0.125-0.028-0.25-0.042-0.416-0.042
					c-0.859,0-1.469,0.651-1.635,1.565c-0.027,0.166-0.055,0.36-0.055,0.568v3.575h-1.206V392.103z"/>
				<path fill="#4C72E3" d="M91.24,393.308c0,2.48-1.718,3.561-3.339,3.561c-1.815,0-3.214-1.33-3.214-3.45
					c0-2.245,1.469-3.561,3.325-3.561C89.938,389.858,91.24,391.257,91.24,393.308z M85.92,393.377c0,1.468,0.845,2.577,2.037,2.577
					c1.164,0,2.037-1.094,2.037-2.604c0-1.136-0.568-2.577-2.009-2.577C86.543,390.772,85.92,392.103,85.92,393.377z"/>
				<path fill="#4C72E3" d="M91.143,398.656c0.554-0.042,1.039-0.194,1.33-0.512c0.333-0.388,0.458-0.915,0.458-2.522v-5.611h1.219
					v6.083c0,1.302-0.208,2.147-0.803,2.757c-0.541,0.54-1.427,0.762-2.079,0.762L91.143,398.656z M94.288,388.126
					c0.014,0.401-0.277,0.748-0.762,0.748c-0.458,0-0.749-0.347-0.749-0.748c0-0.43,0.319-0.762,0.776-0.762
					C93.997,387.364,94.288,387.697,94.288,388.126z"/>
				<path fill="#4C72E3" d="M96.824,393.585c0.027,1.649,1.081,2.328,2.3,2.328c0.873,0,1.399-0.152,1.856-0.346l0.208,0.873
					c-0.43,0.194-1.164,0.416-2.23,0.416c-2.064,0-3.298-1.358-3.298-3.381c0-2.022,1.191-3.616,3.145-3.616
					c2.189,0,2.771,1.926,2.771,3.159c0,0.25-0.027,0.443-0.042,0.568H96.824z M100.399,392.712c0.014-0.776-0.318-1.981-1.69-1.981
					c-1.233,0-1.773,1.136-1.871,1.981H100.399z"/>
				<path fill="#4C72E3" d="M107.867,396.467c-0.319,0.167-1.025,0.388-1.926,0.388c-2.023,0-3.339-1.372-3.339-3.422
					c0-2.064,1.413-3.561,3.603-3.561c0.72,0,1.357,0.18,1.69,0.346l-0.277,0.942c-0.291-0.167-0.748-0.319-1.413-0.319
					c-1.538,0-2.369,1.136-2.369,2.536c0,1.552,0.998,2.508,2.328,2.508c0.692,0,1.15-0.18,1.496-0.333L107.867,396.467z"/>
				<path fill="#4C72E3" d="M110.763,388.084v1.926h1.746v0.929h-1.746v3.616c0,0.831,0.235,1.302,0.915,1.302
					c0.319,0,0.554-0.042,0.707-0.083l0.056,0.915c-0.236,0.097-0.61,0.167-1.081,0.167c-0.568,0-1.025-0.18-1.316-0.513
					c-0.347-0.36-0.471-0.956-0.471-1.746v-3.658h-1.039v-0.929h1.039v-1.607L110.763,388.084z"/>
				<path fill="#4C72E3" d="M113.714,395.469c0.36,0.236,0.998,0.485,1.607,0.485c0.887,0,1.303-0.443,1.303-0.998
					c0-0.582-0.347-0.9-1.247-1.233c-1.206-0.43-1.773-1.095-1.773-1.898c0-1.081,0.873-1.968,2.314-1.968
					c0.679,0,1.274,0.194,1.648,0.416l-0.305,0.887c-0.263-0.167-0.748-0.388-1.372-0.388c-0.721,0-1.123,0.416-1.123,0.915
					c0,0.554,0.402,0.804,1.275,1.136c1.164,0.443,1.759,1.025,1.759,2.022c0,1.178-0.914,2.009-2.507,2.009
					c-0.734,0-1.414-0.18-1.884-0.458L113.714,395.469z"/>
			</g>
		</g>
	</g>
</g>
</svg>
